<?xml version="1.0" encoding="iso-8859-1"?>
<!-- Generator: Adobe Illustrator 21.0.0, SVG Export Plug-In . SVG Version: 6.00 Build 0)  -->
<svg version="1.1" id="&#x56FE;&#x5C42;_1" xmlns="http://www.w3.org/2000/svg" xmlns:xlink="http://www.w3.org/1999/xlink" x="0px"
	 y="0px" viewBox="0 0 841.89 595.28" style="enable-background:new 0 0 841.89 595.28;" xml:space="preserve">
<path style="fill:#15BFFF;stroke:#000000;stroke-miterlimit:10;" d="M1,14c0,0,84.228,3.563,112,0c60.941-7.818,79.93-3.211,138-3
	c57.277,0.208,73.637,14.033,134,22c36.186,4.776,146-23.539,146-23.539v24.082H1V14z"/>
<path style="fill:#2AD0FF;stroke:#000000;stroke-miterlimit:10;" d="M1,13c0,0,84.054-1.74,112,0c34.198,2.129,101.735,17,136,17
	s101.802-14.871,136-17c36.429-2.268,146,0,146,0v20.64L1,40V13z"/>
<rect x="1" y="34" style="fill:#6AD2FF;stroke:#000000;stroke-miterlimit:10;" width="530" height="173"/>
<path style="fill:#15BFFF;stroke:#000000;stroke-miterlimit:10;" d="M95,25"/>
</svg>
